<svg version="1.1" xmlns="http://www.w3.org/2000/svg" xmlns:xlink="http://www.w3.org/1999/xlink" width="48.75" height="33.12273" viewBox="0,0,48.75,33.12273"><g transform="translate(-215.69212,-164.9)"><g data-paper-data="{&quot;isPaintingLayer&quot;:true}" stroke="none" stroke-linecap="butt" stroke-linejoin="miter" stroke-miterlimit="10" stroke-dasharray="" stroke-dashoffset="0" style="mix-blend-mode: normal"><path d="M264.44212,194.89773c0,1.72589 -10.91306,3.125 -24.375,3.125c-13.46194,0 -24.375,-1.39911 -24.375,-3.125c0,-1.72589 10.91306,-3.125 24.375,-3.125c13.46194,0 24.375,1.39911 24.375,3.125z" fill-opacity="0.28118" fill="#c7c7c7" fill-rule="nonzero" stroke-width="0"/><g fill-rule="evenodd"><path d="M223.6,181.4c9.1,9.1 23.8,9.1 32.9,0l4.9,4.9c-11.8,11.8 -31,11.8 -42.8,0z" fill="#daead4" stroke-width="1"/><path d="M239.9,164.9l17,17c-9.3,9.4 -24.5,9.4 -33.9,0z" fill="#ee1717" stroke-width="1"/><path d="M237.3,183.2c0.9,0.4 1.4,1.1 1.2,1.7c-0.2,0.6 -1.1,0.7 -2,0.4c-0.9,-0.4 -1.4,-1.1 -1.2,-1.7c0.2,-0.6 1.1,-0.7 2,-0.4z" fill="#231f20" stroke-width="1"/><g fill="#231f20" stroke-width="1"><path d="M233.3885,176.3298c0.7516,-0.4063 1.6078,-0.3236 1.7125,0.1653c0.2457,0.4792 -0.2043,1.1482 -0.9559,1.5545c-0.7516,0.4062 -1.6079,0.3236 -1.7125,-0.1653c-0.2457,-0.4792 0.2042,-1.1482 0.9559,-1.5545z"/></g><g fill="#231f20" stroke-width="1"><path d="M229.7248,181.4096c0.8295,-0.2048 1.6377,0.0899 1.7554,0.6154c-0.0213,0.4996 -0.5682,1.1168 -1.3977,1.3216c-0.8294,0.2048 -1.6376,-0.0899 -1.7553,-0.6154c-0.1177,-0.5255 0.5682,-1.1168 1.3976,-1.3216z"/></g><g fill="#231f20" stroke-width="1"><path d="M250.2015,179.6661c0.8544,0.0038 1.4377,0.4278 1.4236,0.9662c-0.0141,0.5383 -0.7298,0.9096 -1.5842,0.9057c-0.8543,-0.0038 -1.4376,-0.4278 -1.4235,-0.9661c0.1426,-0.4793 0.8235,-0.9444 1.5841,-0.9058z"/></g><g fill="#231f20" stroke-width="1"><path d="M239.1085,170.8782c0.8544,-0.0086 1.4438,0.4069 1.4375,0.9454c-0.0063,0.5384 -0.6232,0.8841 -1.4775,0.8926c-0.8544,0.0086 -1.4438,-0.4068 -1.4375,-0.9453c0.0423,-0.4452 0.7164,-0.9202 1.4775,-0.8927z"/></g><g fill="#231f20" stroke-width="1"><path d="M246.7309,174.9538c0.399,0.8005 0.298,1.6003 -0.1623,1.8798c-0.4604,0.2794 -1.22,-0.0416 -1.6791,-0.7621c-0.399,-0.8005 -0.298,-1.6004 0.1624,-1.8798c0.6003,-0.2993 1.2998,0.1016 1.679,0.7621z"/></g><path d="M240.9,177.6c0.6,0.5 0.9,1.2 0.6,1.7c-0.3,0.4 -1.1,0.3 -1.8,-0.1c-0.6,-0.5 -0.9,-1.2 -0.6,-1.7c0.4,-0.4 1.1,-0.4 1.8,0.1z" fill="#231f20" stroke-width="1"/><path d="M245.4,184.1c-0.1,0.9 -0.7,1.6 -1.3,1.6c-0.6,-0.1 -1,-0.9 -0.9,-1.9c0.1,-0.9 0.7,-1.6 1.3,-1.6c0.7,0.1 1.1,0.9 0.9,1.9z" fill="#231f20" stroke-width="1"/></g><path d="M259.6,184.5l1.8,1.8c-11.8,11.8 -31,11.8 -42.8,0l2.1,-2.1c10.7,11 28,11 38.9,0.3z" fill="#99c566" fill-rule="evenodd" stroke-width="1"/></g></g></svg>